<svg width="32" height="26" viewBox="0 0 32 26" fill="none" xmlns="http://www.w3.org/2000/svg">
<path d="M7.31729 24.6631H24.6827L23.4923 26C25.3479 25.2377 29.6473 23.6779 32 23.6779C29.6473 23.6779 25.3479 22.1182 23.4923 21.3559L24.6827 22.7632H17.8206L16.9803 21.8484V18.682L17.7505 17.7673H21.5317L20.2363 19.1394C22.0219 18.4005 26.2652 16.9158 28.954 16.8877C26.2652 16.8595 22.0219 15.3748 20.2363 14.636L21.5317 16.0081H17.7505L16.9803 15.0934V8.58458L18.3107 9.85115C17.0066 6.0526 16.5403 3.89095 16 0C15.4597 3.89095 14.9934 6.0526 13.6893 9.85115L15.0197 8.58458V15.0934L14.2495 16.0081H10.4683L11.7637 14.636C9.97812 15.3748 5.73479 16.8595 3.04595 16.8877C5.73479 16.9158 9.97812 18.4005 11.7637 19.1394L10.4683 17.7673H14.2495L15.0197 18.682V21.8484L14.1794 22.7632H7.31729L8.50766 21.3559C6.65208 22.1182 2.35274 23.6779 0 23.6779C2.35274 23.6779 6.65208 25.2377 8.50766 26L7.31729 24.6631Z" fill="#D20D1B"/>
</svg>
